<svg width="598" height="297" viewBox="0 0 598 297" fill="none" xmlns="http://www.w3.org/2000/svg">
<path d="M539.443 200.689C539.443 240.012 507.573 271.893 468.229 271.893H384.125C383.932 270.825 383.646 269.783 383.271 268.762L373.698 243.262C373.417 242.538 373.911 240.7 374.516 240.215L374.745 240.023L374.969 239.809L384.87 230.544L385.083 230.34L385.307 230.116C385.547 229.866 386.516 229.393 387.599 229.393C388.026 229.393 388.297 229.476 388.344 229.502L413.234 240.783C415.448 241.788 417.797 242.299 420.219 242.299C426.917 242.299 433 238.377 435.714 232.309L452.078 196.236C453.953 192.085 454.083 187.476 452.479 183.221C450.859 178.981 447.729 175.627 443.599 173.768L418.792 162.507C418.047 162.174 417.109 160.528 417.182 159.747L417.203 159.476V159.21L417.693 145.653L417.703 145.309L417.693 144.965C417.667 144.221 418.714 142.695 419.432 142.419L444.99 132.809C449.219 131.221 452.589 128.054 454.464 123.908C456.323 119.783 456.479 115.174 454.901 110.945L440.943 73.8508C438.479 67.2987 432.073 62.8769 425.005 62.8769C422.979 62.8769 421.01 63.231 419.089 63.955L393.536 73.5644C393.5 73.5644 393.323 73.6112 393.005 73.6112C391.828 73.6112 390.714 73.0227 390.453 72.7102L390.276 72.4862L390.062 72.2623L380.781 62.3769L380.589 62.179L380.375 61.9967C379.818 61.455 379.453 59.5696 379.76 58.856L391.026 33.9967C392.302 31.2102 392.719 28.1633 392.385 25.1529C393.906 25.0956 395.401 25.0227 396.943 25.0227C460.911 25.0227 512.766 76.8508 512.766 140.773C512.766 142.241 512.708 143.689 512.646 145.148C528.984 158.169 539.443 178.2 539.443 200.689ZM206.365 262.934L217.651 238.08C217.984 237.356 217.604 235.497 217.036 234.965L216.812 234.762L216.62 234.549L207.349 224.679L207.146 224.465L206.958 224.241C206.698 223.919 205.62 223.34 204.432 223.34C204.135 223.34 203.948 223.387 203.875 223.398L178.359 232.971C176.438 233.695 174.422 234.064 172.391 234.064C165.359 234.064 158.969 229.643 156.479 223.054L142.547 185.997C140.958 181.768 141.099 177.153 142.984 173.018C144.859 168.872 148.24 165.721 152.474 164.132L178.016 154.533C178.734 154.257 179.771 152.684 179.745 151.877L179.734 151.58L179.745 151.262L180.219 137.726L180.229 137.429L180.245 137.148C180.328 136.387 179.375 134.715 178.688 134.408L153.812 123.163C149.688 121.288 146.531 117.924 144.953 113.669C143.354 109.413 143.484 104.814 145.37 100.679L160.786 66.7258C114.917 68.9185 78.3021 106.132 77.151 152.247C65.2969 164.96 58 181.955 58 200.689C58 240.012 89.8854 271.893 129.229 271.893H205.036C204.682 268.929 205.036 265.835 206.365 262.934Z" fill="white"/>
<path d="M364.557 123.788C354.323 96.554 327.906 78.2727 298.828 78.2727C290.401 78.2727 282.089 79.7884 274.12 82.7988C256.594 89.3613 242.672 102.398 234.917 119.465C227.177 136.528 226.547 155.575 233.151 173.111C243.375 200.335 269.792 218.632 298.88 218.632C307.297 218.632 315.583 217.116 323.552 214.116C341.125 207.528 355.057 194.507 362.813 177.429C370.531 160.351 371.162 141.32 364.557 123.788ZM350.859 172.023C344.568 185.903 333.219 196.507 318.953 201.866C312.469 204.304 305.719 205.528 298.88 205.528C275.224 205.528 253.724 190.643 245.401 168.518C240.031 154.247 240.552 138.747 246.849 124.866C253.146 110.981 264.469 100.398 278.734 95.0384C285.219 92.6009 291.979 91.3665 298.828 91.3665C322.484 91.3665 343.974 106.236 352.297 128.387C357.682 142.643 357.156 158.148 350.859 172.023ZM340.828 132.7C345.052 143.887 344.651 156.059 339.703 166.965C334.771 177.866 325.844 186.21 314.615 190.419C309.537 192.325 304.24 193.294 298.854 193.294C280.287 193.294 263.401 181.622 256.865 164.226C252.646 153.028 253.063 140.83 258.005 129.929C262.938 119.028 271.833 110.705 283.047 106.502C288.136 104.59 293.448 103.606 298.828 103.606C317.422 103.596 334.307 115.294 340.828 132.7ZM440.151 181.715L415.307 170.434C411.182 168.575 408.182 163.372 408.62 158.866L409.094 145.325C408.917 140.799 412.271 135.809 416.516 134.221L442.057 124.606C446.302 123.018 448.448 118.231 446.849 113.991L432.906 76.9081C431.328 72.6998 426.547 70.5331 422.302 72.1061L396.761 81.7206C392.542 83.3092 386.708 81.7311 383.849 78.2206L374.568 68.3404C371.271 65.2571 370.104 59.3665 371.969 55.2467L383.234 30.3821C385.094 26.2467 383.255 21.3613 379.141 19.5019L343.037 3.12169C338.912 1.2519 334 3.11127 332.125 7.22586L320.839 32.0644C318.979 36.1738 313.771 39.1842 309.24 38.7259L295.714 38.2519C291.172 38.429 286.193 35.0852 284.578 30.8404L274.964 5.33002C273.406 1.12169 268.63 -1.08144 264.386 0.527939L227.271 14.4654C223.047 16.054 220.891 20.8404 222.469 25.0696L232.063 50.6009C233.662 54.8404 232.094 60.6477 228.599 63.5019L218.688 72.7831C215.615 76.0904 209.698 77.2623 205.583 75.3769L180.703 64.1321C176.578 62.2727 171.682 64.1061 169.818 68.2206L153.432 104.273C151.557 108.408 153.412 113.325 157.511 115.184L182.401 126.434C186.526 128.304 189.526 133.533 189.052 138.023L188.604 151.57C188.745 156.122 185.438 161.132 181.193 162.71L155.662 172.294C151.427 173.898 149.245 178.674 150.849 182.903L164.781 219.986C166.406 224.241 171.146 226.382 175.406 224.794L200.932 215.221C205.167 213.622 210.964 215.174 213.849 218.695L223.12 228.575C226.438 231.658 227.604 237.559 225.729 241.695L214.453 266.533C212.578 270.648 214.417 275.554 218.531 277.424L254.672 293.794C258.787 295.653 263.672 293.83 265.557 289.705L276.823 264.84C278.698 260.726 283.927 257.741 288.422 258.169L301.984 258.653C306.49 258.476 311.521 261.83 313.109 266.049L322.688 291.575C324.276 295.83 329.068 297.976 333.287 296.361L370.401 282.429C374.646 280.851 376.807 276.101 375.203 271.846L365.615 246.33C364.026 242.085 365.589 236.278 369.099 233.434L379.011 224.158C382.094 220.825 388 219.663 392.104 221.538L416.969 232.809C421.094 234.679 426.016 232.82 427.854 228.721L444.25 192.622C446.125 188.497 444.287 183.58 440.151 181.715ZM298.865 231.945C252.703 231.945 215.307 194.554 215.307 148.45C215.307 102.34 252.703 64.9602 298.865 64.9602C345.005 64.9602 382.401 102.34 382.401 148.45C382.401 194.554 345.005 231.945 298.865 231.945Z" fill="white"/>
<path d="M0 166C0 131.758 27.7239 104 61.9231 104H536.077C570.276 104 598 131.758 598 166C598 200.242 570.276 228 536.077 228H61.9231C27.7239 228 0 200.242 0 166Z" fill="black"/>
<path d="M88.7163 201.429V130.997H102.389V189.425H138.255V201.429H88.7163Z" fill="white"/>
<path d="M168.976 202.421C164.815 202.421 161.05 201.726 157.682 200.337C154.313 198.882 151.44 196.932 149.062 194.485C146.684 191.972 144.835 189.128 143.514 185.953C142.259 182.713 141.631 179.307 141.631 175.736C141.631 170.776 142.721 166.246 144.901 162.145C147.146 158.045 150.317 154.772 154.412 152.325C158.573 149.812 163.461 148.555 169.075 148.555C174.756 148.555 179.611 149.812 183.64 152.325C187.669 154.772 190.74 158.045 192.854 162.145C195.034 166.18 196.123 170.544 196.123 175.24C196.123 176.033 196.09 176.86 196.024 177.72C195.958 178.513 195.892 179.175 195.826 179.704H155.7C155.964 182.349 156.724 184.664 157.979 186.648C159.3 188.632 160.951 190.153 162.933 191.211C164.98 192.203 167.16 192.699 169.472 192.699C172.114 192.699 174.591 192.071 176.903 190.814C179.28 189.492 180.899 187.772 181.757 185.656L193.151 188.83C191.896 191.476 190.08 193.823 187.702 195.873C185.39 197.924 182.649 199.544 179.479 200.734C176.308 201.858 172.807 202.421 168.976 202.421ZM155.403 171.272H182.55C182.286 168.626 181.526 166.345 180.271 164.427C179.082 162.443 177.497 160.922 175.515 159.864C173.534 158.74 171.321 158.177 168.877 158.177C166.499 158.177 164.32 158.74 162.338 159.864C160.423 160.922 158.837 162.443 157.583 164.427C156.394 166.345 155.667 168.626 155.403 171.272Z" fill="white"/>
<path d="M228.287 202.421C224.126 202.421 220.361 201.726 216.992 200.337C213.624 198.882 210.75 196.932 208.373 194.485C205.995 191.972 204.145 189.128 202.824 185.953C201.569 182.713 200.942 179.307 200.942 175.736C200.942 170.776 202.032 166.246 204.211 162.145C206.457 158.045 209.628 154.772 213.723 152.325C217.884 149.812 222.772 148.555 228.386 148.555C234.067 148.555 238.921 149.812 242.95 152.325C246.98 154.772 250.051 158.045 252.165 162.145C254.344 166.18 255.434 170.544 255.434 175.24C255.434 176.033 255.401 176.86 255.335 177.72C255.269 178.513 255.203 179.175 255.137 179.704H215.011C215.275 182.349 216.035 184.664 217.29 186.648C218.611 188.632 220.262 190.153 222.243 191.211C224.291 192.203 226.471 192.699 228.782 192.699C231.424 192.699 233.901 192.071 236.213 190.814C238.591 189.492 240.209 187.772 241.068 185.656L252.462 188.83C251.207 191.476 249.39 193.823 247.013 195.873C244.701 197.924 241.96 199.544 238.789 200.734C235.619 201.858 232.118 202.421 228.287 202.421ZM214.714 171.272H241.861C241.596 168.626 240.837 166.345 239.582 164.427C238.393 162.443 236.808 160.922 234.826 159.864C232.845 158.74 230.632 158.177 228.188 158.177C225.81 158.177 223.63 158.74 221.649 159.864C219.733 160.922 218.148 162.443 216.893 164.427C215.704 166.345 214.978 168.626 214.714 171.272Z" fill="white"/>
<path d="M260.352 175.438C260.352 170.412 261.342 165.882 263.324 161.848C265.305 157.748 268.047 154.507 271.547 152.126C275.048 149.745 279.044 148.555 283.536 148.555C287.367 148.555 290.801 149.514 293.84 151.432C296.944 153.284 299.355 155.664 301.072 158.574V129.013H314.349V186.549C314.349 187.937 314.58 188.929 315.042 189.525C315.504 190.12 316.297 190.484 317.42 190.616V201.429C315.108 201.892 313.226 202.123 311.773 202.123C309.395 202.123 307.413 201.528 305.828 200.337C304.309 199.147 303.45 197.593 303.252 195.675L303.054 192.401C301.138 195.642 298.529 198.122 295.227 199.841C291.99 201.561 288.589 202.421 285.022 202.421C281.455 202.421 278.152 201.726 275.114 200.337C272.142 198.949 269.533 197.031 267.287 194.584C265.107 192.137 263.39 189.293 262.135 186.053C260.946 182.746 260.352 179.208 260.352 175.438ZM301.072 182.382V169.982C300.412 168.064 299.355 166.345 297.902 164.824C296.449 163.303 294.83 162.112 293.047 161.253C291.264 160.327 289.48 159.864 287.697 159.864C285.649 159.864 283.8 160.294 282.149 161.153C280.497 162.013 279.044 163.17 277.789 164.625C276.6 166.08 275.675 167.767 275.015 169.685C274.421 171.602 274.123 173.62 274.123 175.736C274.123 177.852 274.454 179.869 275.114 181.787C275.841 183.639 276.864 185.259 278.185 186.648C279.506 188.037 281.026 189.128 282.743 189.921C284.526 190.715 286.442 191.112 288.489 191.112C289.744 191.112 290.999 190.913 292.254 190.517C293.575 190.054 294.797 189.458 295.92 188.731C297.109 187.937 298.133 187.012 298.992 185.953C299.916 184.829 300.61 183.639 301.072 182.382Z" fill="white"/>
<path d="M357.122 201.925C352.564 201.925 348.238 200.999 344.143 199.147C340.114 197.295 336.547 194.749 333.442 191.509C330.404 188.202 328.026 184.366 326.309 180.001C324.592 175.637 323.733 170.908 323.733 165.816C323.733 160.988 324.592 156.458 326.309 152.225C328.026 147.927 330.437 144.157 333.542 140.917C336.646 137.676 340.279 135.13 344.44 133.278C348.601 131.426 353.126 130.501 358.014 130.501C364.619 130.501 370.266 131.922 374.956 134.766C379.711 137.544 383.278 141.247 385.656 145.877L375.451 153.416C373.668 149.911 371.158 147.232 367.921 145.381C364.751 143.529 361.283 142.603 357.518 142.603C354.546 142.603 351.838 143.231 349.394 144.488C346.95 145.744 344.836 147.464 343.053 149.646C341.27 151.829 339.882 154.342 338.892 157.185C337.967 160.029 337.505 163.038 337.505 166.213C337.505 169.585 338 172.694 338.991 175.537C340.048 178.381 341.501 180.861 343.35 182.977C345.266 185.094 347.478 186.78 349.988 188.037C352.498 189.227 355.272 189.822 358.311 189.822C361.878 189.822 365.279 188.896 368.516 187.045C371.818 185.193 374.89 182.481 377.73 178.91V192.401C371.851 198.75 364.982 201.925 357.122 201.925ZM376.739 175.24H362.571V165.221H388.034V201.429H376.739V175.24Z" fill="white"/>
<path d="M422.474 202.421C418.313 202.421 414.548 201.726 411.179 200.337C407.811 198.882 404.937 196.932 402.559 194.485C400.182 191.972 398.332 189.128 397.011 185.953C395.756 182.713 395.129 179.307 395.129 175.736C395.129 170.776 396.219 166.246 398.398 162.145C400.644 158.045 403.814 154.772 407.91 152.325C412.071 149.812 416.959 148.555 422.573 148.555C428.253 148.555 433.108 149.812 437.137 152.325C441.166 154.772 444.238 158.045 446.351 162.145C448.531 166.18 449.621 170.544 449.621 175.24C449.621 176.033 449.588 176.86 449.522 177.72C449.456 178.513 449.39 179.175 449.324 179.704H409.198C409.462 182.349 410.221 184.664 411.476 186.648C412.797 188.632 414.449 190.153 416.43 191.211C418.478 192.203 420.658 192.699 422.969 192.699C425.611 192.699 428.088 192.071 430.4 190.814C432.778 189.492 434.396 187.772 435.255 185.656L446.649 188.83C445.394 191.476 443.577 193.823 441.199 195.873C438.888 197.924 436.147 199.544 432.976 200.734C429.806 201.858 426.305 202.421 422.474 202.421ZM408.9 171.272H436.047C435.783 168.626 435.024 166.345 433.769 164.427C432.58 162.443 430.995 160.922 429.013 159.864C427.031 158.74 424.819 158.177 422.375 158.177C419.997 158.177 417.817 158.74 415.836 159.864C413.92 160.922 412.335 162.443 411.08 164.427C409.891 166.345 409.165 168.626 408.9 171.272Z" fill="white"/>
<path d="M505.959 201.429H492.683V172.264C492.683 168.097 491.957 165.055 490.503 163.137C489.05 161.22 487.036 160.261 484.46 160.261C482.676 160.261 480.86 160.724 479.01 161.649C477.227 162.575 475.609 163.865 474.156 165.518C472.703 167.105 471.646 168.957 470.985 171.073V201.429H457.709V149.448H469.697V159.07C471.018 156.822 472.703 154.937 474.75 153.416C476.798 151.829 479.143 150.638 481.785 149.845C484.493 148.985 487.333 148.555 490.305 148.555C493.542 148.555 496.184 149.15 498.231 150.341C500.345 151.465 501.93 153.019 502.987 155.003C504.11 156.921 504.87 159.103 505.266 161.55C505.728 163.997 505.959 166.477 505.959 168.99V201.429Z" fill="white"/>
</svg>
